<?xml version="1.0" encoding="UTF-8"?>
<svg version="1.1" xmlns="http://www.w3.org/2000/svg" width="654" height="145">
<path d="M0 0 C1.02996094 -0.00128906 2.05992187 -0.00257812 3.12109375 -0.00390625 C4.74724609 0.00189453 4.74724609 0.00189453 6.40625 0.0078125 C7.49035156 0.00394531 8.57445312 0.00007813 9.69140625 -0.00390625 C10.72136719 -0.00261719 11.75132812 -0.00132813 12.8125 0 C14.24045898 0.00169189 14.24045898 0.00169189 15.69726562 0.00341797 C17.90625 0.1328125 17.90625 0.1328125 18.90625 1.1328125 C18.98040595 2.61120437 18.98443653 4.09319808 18.9597168 5.57324219 C18.9460759 6.51802429 18.932435 7.4628064 18.91838074 8.43621826 C18.89761978 9.46531311 18.87685883 10.49440796 18.85546875 11.5546875 C18.8366011 12.60682434 18.81773346 13.65896118 18.79829407 14.74298096 C18.75631655 16.97584148 18.71157004 19.20865136 18.66430664 21.44140625 C18.59433941 24.85406377 18.53987136 28.26673789 18.48632812 31.6796875 C18.44366082 33.84637313 18.40007083 36.01304083 18.35546875 38.1796875 C18.34078049 39.20068542 18.32609222 40.22168335 18.31095886 41.27362061 C18.28786148 42.23101135 18.2647641 43.1884021 18.2409668 44.17480469 C18.22462692 45.01340027 18.20828705 45.85199585 18.19145203 46.71600342 C17.86870855 49.45093968 17.02611151 51.62777141 15.90625 54.1328125 C16.56625 54.1328125 17.22625 54.1328125 17.90625 54.1328125 C18.091875 53.3490625 18.2775 52.5653125 18.46875 51.7578125 C20.4735249 46.70229319 23.41304572 42.3015893 26.90625 38.1328125 C27.56625 38.1328125 28.22625 38.1328125 28.90625 38.1328125 C29.091875 37.4728125 29.2775 36.8128125 29.46875 36.1328125 C31.61080094 31.66244532 33.84850245 28.08543371 37.90625 25.1328125 C42.42718281 24.1587233 46.7458614 24.37193939 51.34375 24.6328125 C52.55224609 24.66890625 53.76074219 24.705 55.00585938 24.7421875 C57.97595002 24.83610341 60.93943135 24.9672996 63.90625 25.1328125 C62.05923965 29.07493907 59.50077421 32.1234717 56.65625 35.3828125 C52.89963633 39.73538317 49.31198896 44.11268373 46.02734375 48.83984375 C45.65738281 49.26652344 45.28742187 49.69320312 44.90625 50.1328125 C44.24625 50.1328125 43.58625 50.1328125 42.90625 50.1328125 C43.36177271 55.39130273 45.35113373 58.80815186 48.34375 63.0078125 C49.25078518 64.32278145 50.15566106 65.63924192 51.05859375 66.95703125 C51.5263623 67.63685059 51.99413086 68.31666992 52.47607422 69.01708984 C54.87332946 72.56345616 57.1428108 76.18759096 59.40625 79.8203125 C59.82704834 80.4911084 60.24784668 81.1619043 60.68139648 81.85302734 C62.568728 84.88341238 64.39756736 87.89406445 65.90625 91.1328125 C63.26368273 93.77537977 56.25763836 92.65923622 52.71875 92.7578125 C51.58115234 92.82871094 50.44355469 92.89960937 49.27148438 92.97265625 C41.03037295 93.15547133 41.03037295 93.15547133 37.92089844 90.32666016 C36.36130957 87.99715393 35.12094271 85.65714764 33.90625 83.1328125 C33.14512584 81.91594678 32.36800667 80.70883754 31.5703125 79.515625 C30.89742187 78.44054687 30.22453125 77.36546875 29.53125 76.2578125 C28.84289062 75.16726562 28.15453125 74.07671875 27.4453125 72.953125 C25.90625 70.1328125 25.90625 70.1328125 25.90625 67.1328125 C22.45551659 69.01503073 20.99404932 69.87785789 18.90625 73.1328125 C17.9571282 77.80222282 18.0123879 82.56099268 17.9765625 87.30859375 C17.90625 91.1328125 17.90625 91.1328125 16.90625 92.1328125 C15.35669441 92.23180773 13.80271327 92.26360774 12.25 92.265625 C10.84041016 92.26755859 10.84041016 92.26755859 9.40234375 92.26953125 C7.91927734 92.26373047 7.91927734 92.26373047 6.40625 92.2578125 C5.41753906 92.26167969 4.42882812 92.26554687 3.41015625 92.26953125 C2.47042969 92.26824219 1.53070312 92.26695313 0.5625 92.265625 C-0.30568359 92.26449707 -1.17386719 92.26336914 -2.06835938 92.26220703 C-4.09375 92.1328125 -4.09375 92.1328125 -5.09375 91.1328125 C-5.22428259 88.33910106 -5.29045517 85.56880692 -5.31494141 82.7734375 C-5.3264473 81.89707642 -5.33795319 81.02071533 -5.34980774 80.11779785 C-5.38664343 77.20617235 -5.41619612 74.29452472 -5.4453125 71.3828125 C-5.4684122 69.36881179 -5.49180236 67.3548144 -5.51547241 65.34082031 C-5.56399871 61.11396053 -5.60892159 56.88708133 -5.65136719 52.66015625 C-5.70620442 47.22893042 -5.77002305 41.79785407 -5.83654213 36.36676025 C-5.88650132 32.20625452 -5.93167545 28.04570752 -5.97538376 23.88513184 C-5.99702068 21.88194103 -6.0201784 19.87876608 -6.0448494 17.87561035 C-6.07855674 15.08116074 -6.10583332 12.28672225 -6.13134766 9.4921875 C-6.14272263 8.65578735 -6.1540976 7.81938721 -6.16581726 6.9576416 C-6.18016287 5.01593629 -6.14269804 3.07395376 -6.09375 1.1328125 C-4.40858046 -0.55235704 -2.30607212 0.00273231 0 0 Z " fill="#3B3B3B" transform="translate(581.09375,32.8671875)"/>
<path d="M0 0 C0.94675095 -0.0033284 1.89350189 -0.0066568 2.86894226 -0.01008606 C4.88405877 -0.01516447 6.89918374 -0.01749411 8.91430664 -0.01733398 C11.9605968 -0.01949498 15.00650963 -0.03756921 18.05273438 -0.05664062 C46.69252068 -0.14316254 46.69252068 -0.14316254 55.69921875 8.16796875 C63.89562181 17.2280788 64.01080101 28.38384778 63.96484375 40.046875 C63.9667572 41.13959213 63.96867065 42.23230927 63.97064209 43.35813904 C63.97199378 45.65144076 63.96836895 47.9447504 63.95996094 50.23803711 C63.94923673 53.72462315 63.95989661 57.21069524 63.97265625 60.69726562 C63.97133468 62.93880321 63.96877233 65.18034047 63.96484375 67.421875 C63.96889221 68.45131729 63.97294067 69.48075958 63.97711182 70.54139709 C63.91241137 80.64825858 63.17263486 90.54538197 55.8359375 98.08203125 C49.73950277 103.66181897 44.8597471 105.48792472 36.69921875 106.16796875 C34.79287439 104.26162439 35.51532359 100.76719356 35.49389648 98.16967773 C35.48399689 97.43801392 35.47409729 96.7063501 35.46389771 95.95251465 C35.43219492 93.52306403 35.40749082 91.09359382 35.3828125 88.6640625 C35.36225053 86.98396788 35.34125427 85.30387852 35.31983948 83.62379456 C35.26454049 79.19329072 35.21516588 74.7627396 35.16699219 70.33215332 C35.11683415 65.8144915 35.06111842 61.29689867 35.00585938 56.77929688 C34.89818215 47.90891305 34.79675857 39.03846943 34.69921875 30.16796875 C33.95349609 30.12833008 33.20777344 30.08869141 32.43945312 30.04785156 C29.02474647 29.85602602 25.61226962 29.63722255 22.19921875 29.41796875 C21.02617188 29.35609375 19.853125 29.29421875 18.64453125 29.23046875 C8.97207857 28.57839329 2.02536805 26.44436331 -4.7578125 19.2265625 C-8.65045997 14.03308094 -11.13892679 7.70550396 -10.30078125 1.16796875 C-8.12786781 -1.00494469 -3.02205339 0.00365688 0 0 Z " fill="#3A4D86" transform="translate(21.30078125,24.83203125)"/>
<path d="M0 0 C1.82556117 1.82556117 1.12772403 4.70538603 1.12939453 7.15625 C1.13254669 8.47431641 1.13569885 9.79238281 1.13894653 11.15039062 C1.13715675 12.60026075 1.1351058 14.05013058 1.1328125 15.5 C1.13348557 16.97591162 1.13445563 18.45182313 1.13571167 19.92773438 C1.13718848 23.02475029 1.13503464 26.12173742 1.13037109 29.21875 C1.1246738 33.19708549 1.1279529 37.17535352 1.13394356 41.15368652 C1.13754963 44.20247917 1.13641037 47.25125571 1.13381577 50.30004883 C1.13314662 51.76733406 1.13397447 53.23462074 1.13629532 54.7019043 C1.13882257 56.74918593 1.1342906 58.79647266 1.12939453 60.84375 C1.12859894 62.01099609 1.12780334 63.17824219 1.12698364 64.38085938 C1 67 1 67 0 68 C-2.86267567 68.07325168 -5.700719 68.09238205 -8.5625 68.0625 C-9.36880859 68.05798828 -10.17511719 68.05347656 -11.00585938 68.04882812 C-13.00393756 68.03700518 -15.00197783 68.01906914 -17 68 C-20 61.25 -20 61.25 -20 59 C-20.58007812 59.48210937 -21.16015625 59.96421875 -21.7578125 60.4609375 C-22.53898437 61.09257813 -23.32015625 61.72421875 -24.125 62.375 C-24.89070313 63.00148437 -25.65640625 63.62796875 -26.4453125 64.2734375 C-33.33228616 68.92793652 -40.97422756 68.73378491 -49 68 C-54.90169133 66.38460704 -58.6279488 63.10624896 -62 58 C-65.06230401 51.25888675 -65.40578695 44.93270356 -65.29296875 37.62109375 C-65.28660149 36.04208031 -65.28660149 36.04208031 -65.28010559 34.4311676 C-65.26343768 31.09967458 -65.2258075 27.76880732 -65.1875 24.4375 C-65.17243781 22.16602442 -65.1587521 19.89453927 -65.14648438 17.62304688 C-65.11613692 12.08160166 -65.05739176 6.54149358 -65 1 C-56.75 1 -48.5 1 -40 1 C-40.02320313 3.89007813 -40.04640625 6.78015625 -40.0703125 9.7578125 C-40.0859256 12.56770387 -40.09806091 15.37759034 -40.10986328 18.1875 C-40.11989919 20.13511328 -40.13353088 22.08271157 -40.15087891 24.03027344 C-40.17523328 26.83532417 -40.18650737 29.64017505 -40.1953125 32.4453125 C-40.20563507 33.31116974 -40.21595764 34.17702698 -40.22659302 35.06912231 C-40.22746211 39.78902879 -39.82472246 43.56131525 -38 48 C-33.32559573 48.96477426 -33.32559573 48.96477426 -28.6875 48.3125 C-26.13914568 46.33044664 -25.14898823 44.1104317 -24.7215271 40.92449951 C-24.70820343 40.18725647 -24.69487976 39.45001343 -24.68115234 38.69042969 C-24.66128265 37.84986023 -24.64141296 37.00929077 -24.62094116 36.14324951 C-24.60361435 34.79616913 -24.60361435 34.79616913 -24.5859375 33.421875 C-24.56657135 32.4953009 -24.5472052 31.56872681 -24.5272522 30.61407471 C-24.46755233 27.65947629 -24.42110932 24.70483871 -24.375 21.75 C-24.3368114 19.74477483 -24.29775915 17.73956591 -24.2578125 15.734375 C-24.1618586 10.82304889 -24.07779197 5.911646 -24 1 C-21.50018262 0.8301095 -19.00020399 0.66402047 -16.5 0.5 C-15.80390625 0.45230469 -15.1078125 0.40460937 -14.390625 0.35546875 C-9.58312455 0.0438715 -4.81783093 -0.12790702 0 0 Z " fill="#3D3D3D" transform="translate(207,57)"/>
<path d="M0 0 C0.69029297 -0.01611328 1.38058594 -0.03222656 2.09179688 -0.04882812 C8.12250302 -0.05454443 12.81015526 1.73331492 17.25 5.8125 C23.51600227 12.65067773 23.50259164 22.85311176 23.390625 31.6328125 C23.38875183 32.65809052 23.38687866 33.68336853 23.38494873 34.73971558 C23.37828224 36.88250027 23.3644774 39.02527394 23.34375 41.16796875 C23.31225001 44.46365535 23.30273772 47.75886441 23.296875 51.0546875 C23.28771742 53.14323507 23.27734566 55.23177774 23.265625 57.3203125 C23.26137512 58.30871124 23.25712524 59.29710999 23.25274658 60.31546021 C23.24313904 61.22085541 23.23353149 62.12625061 23.22363281 63.05908203 C23.21680481 63.85863312 23.20997681 64.6581842 23.20294189 65.48196411 C23.0625 67.3125 23.0625 67.3125 22.0625 68.3125 C20.60945692 68.41135916 19.15171328 68.44329333 17.6953125 68.4453125 C16.36693359 68.44724609 16.36693359 68.44724609 15.01171875 68.44921875 C14.07972656 68.44535156 13.14773438 68.44148438 12.1875 68.4375 C11.26324219 68.44136719 10.33898437 68.44523437 9.38671875 68.44921875 C8.49855469 68.44792969 7.61039063 68.44664063 6.6953125 68.4453125 C5.87949707 68.44418457 5.06368164 68.44305664 4.22314453 68.44189453 C2.0625 68.3125 2.0625 68.3125 -0.9375 67.3125 C-0.96255615 66.00055664 -0.9876123 64.68861328 -1.01342773 63.33691406 C-1.10760671 58.46897633 -1.20780194 53.60117779 -1.30981445 48.73339844 C-1.35312358 46.62666073 -1.39480153 44.51988883 -1.43481445 42.41308594 C-1.49261427 39.38466081 -1.55628096 36.35640715 -1.62109375 33.328125 C-1.63780624 32.38632385 -1.65451874 31.44452271 -1.67173767 30.47418213 C-1.7016555 29.15326569 -1.7016555 29.15326569 -1.73217773 27.80566406 C-1.75549416 26.64650482 -1.75549416 26.64650482 -1.77928162 25.46392822 C-1.93768514 23.30998251 -2.34968206 21.38686562 -2.9375 19.3125 C-4.3745809 19.25827053 -5.81225462 19.21960277 -7.25 19.1875 C-8.05050781 19.16429688 -8.85101562 19.14109375 -9.67578125 19.1171875 C-12.22138576 19.15432678 -12.22138576 19.15432678 -14.9375 21.3125 C-19.58640143 30.71506126 -18.04022706 42.75529175 -17.9375 52.9375 C-17.91095575 55.63806095 -17.89105951 58.33838901 -17.875 61.0390625 C-17.86339844 62.22064941 -17.85179687 63.40223633 -17.83984375 64.61962891 C-17.9375 67.3125 -17.9375 67.3125 -18.9375 68.3125 C-21.2898742 68.41335841 -23.6454692 68.44213947 -26 68.4375 C-27.93552734 68.44136719 -27.93552734 68.44136719 -29.91015625 68.4453125 C-33.93482629 68.31258817 -37.94173798 67.81197025 -41.9375 67.3125 C-41.9375 45.5325 -41.9375 23.7525 -41.9375 1.3125 C-35.6675 1.3125 -29.3975 1.3125 -22.9375 1.3125 C-22.6075 3.9525 -22.2775 6.5925 -21.9375 9.3125 C-21.34582031 8.83039063 -20.75414062 8.34828125 -20.14453125 7.8515625 C-19.35433594 7.21992187 -18.56414063 6.58828125 -17.75 5.9375 C-16.97269531 5.31101562 -16.19539062 4.68453125 -15.39453125 4.0390625 C-10.38516962 0.51897054 -6.02728215 -0.02798181 0 0 Z " fill="#3E3E3E" transform="translate(544.9375,56.6875)"/>
<path d="M0 0 C1.25055176 0.01135986 1.25055176 0.01135986 2.52636719 0.02294922 C8.5849133 0.18576225 13.43645772 0.89858474 18.5 4.4375 C19.42619141 5.02144531 19.42619141 5.02144531 20.37109375 5.6171875 C26.7133849 10.22728301 30.5363473 17.9308368 32.15234375 25.48828125 C33.38349496 35.93231679 32.98427465 47.21394718 27.5 56.4375 C26.84 56.4375 26.18 56.4375 25.5 56.4375 C25.25636719 57.03304687 25.01273437 57.62859375 24.76171875 58.2421875 C23.26660667 60.84358994 21.80972969 61.92060372 19.3125 63.5625 C18.20841797 64.30886719 18.20841797 64.30886719 17.08203125 65.0703125 C8.54596537 69.59016584 -2.15071105 69.8271871 -11.48046875 67.78515625 C-19.61682862 64.84597509 -26.44448589 59.09791553 -30.5 51.4375 C-34.90222065 41.33716691 -35.21782753 29.03465808 -31.54296875 18.6484375 C-28.43793502 12.06623117 -23.33465609 5.5603574 -16.55395508 2.58300781 C-10.94422323 0.62198002 -5.92913274 -0.0757064 0 0 Z M-6.375 18.625 C-9.57764423 23.78481571 -9.86527961 28.39278283 -9.875 34.3125 C-9.89949219 35.08980469 -9.92398437 35.86710937 -9.94921875 36.66796875 C-9.97810784 42.39763855 -8.80166404 45.73661775 -5.5 50.4375 C-2.37139505 52.00180248 0.05602925 51.79377284 3.5 51.4375 C6.51566745 48.50119222 8.31976536 45.81175058 8.64526367 41.52392578 C8.66987233 39.203303 8.6856552 36.88326314 8.6875 34.5625 C8.70586914 33.35787109 8.70586914 33.35787109 8.72460938 32.12890625 C8.73747752 26.92159756 8.17059806 23.1290191 5.375 18.625 C1.86648846 16.40294269 -2.86648846 16.40294269 -6.375 18.625 Z " fill="#3B3B3B" transform="translate(307.5,56.5625)"/>
<path d="M0 0 C7.92 0 15.84 0 24 0 C24 21.78 24 43.56 24 66 C34.56 65.67 45.12 65.34 56 65 C57.55606751 66.55606751 57.12970769 68.05957371 57.1328125 70.21875 C57.13474609 71.49298828 57.13474609 71.49298828 57.13671875 72.79296875 C57.13285156 73.68628906 57.12898438 74.57960938 57.125 75.5 C57.13080078 76.83998047 57.13080078 76.83998047 57.13671875 78.20703125 C57.13542969 79.05652344 57.13414062 79.90601562 57.1328125 80.78125 C57.13168457 81.56564453 57.13055664 82.35003906 57.12939453 83.15820312 C57 85 57 85 56 86 C54.28681054 86.09881593 52.56955197 86.12798969 50.85351562 86.12939453 C49.75567749 86.13254669 48.65783936 86.13569885 47.5267334 86.13894653 C46.33197388 86.1369223 45.13721436 86.13489807 43.90625 86.1328125 C42.68925415 86.13376923 41.4722583 86.13472595 40.21838379 86.13571167 C37.63924101 86.13639372 35.06009653 86.13453772 32.48095703 86.13037109 C28.51721364 86.12502322 24.55358358 86.13031529 20.58984375 86.13671875 C18.09114558 86.13605797 15.59244748 86.13477682 13.09375 86.1328125 C11.30161072 86.13584885 11.30161072 86.13584885 9.4732666 86.13894653 C8.37542847 86.13579437 7.27759033 86.13264221 6.14648438 86.12939453 C4.68873596 86.12820114 4.68873596 86.12820114 3.20153809 86.12698364 C1 86 1 86 0 85 C-0.09511266 82.35261911 -0.12555635 79.73140999 -0.11352539 77.08374023 C-0.11367142 76.25454071 -0.11381744 75.42534119 -0.1139679 74.5710144 C-0.11326851 71.81684802 -0.10547493 69.06274839 -0.09765625 66.30859375 C-0.09579216 64.40430234 -0.09436822 62.50001045 -0.09336853 60.59571838 C-0.08954263 55.57332037 -0.07971173 50.55095108 -0.06866455 45.52856445 C-0.05845198 40.4077188 -0.05387124 35.28686852 -0.04882812 30.16601562 C-0.03808952 20.1106624 -0.02049215 10.05533808 0 0 Z " fill="#414141" transform="translate(405,39)"/>
<path d="M0 0 C5.61 0 11.22 0 17 0 C17 4.29 17 8.58 17 13 C22.28 13 27.56 13 33 13 C33 18.61 33 24.22 33 30 C27.72 30 22.44 30 17 30 C17.09686684 34.09389873 17.19954872 38.18698762 17.31738281 42.28027344 C17.35569327 43.67308572 17.39054259 45.06599765 17.421875 46.45898438 C17.46747907 48.45986308 17.52651623 50.46042146 17.5859375 52.4609375 C17.6173584 53.66540527 17.6487793 54.86987305 17.68115234 56.11083984 C17.70915226 59.1260018 17.70915226 59.1260018 20 61 C22.05118698 61.05980758 22.05118698 61.05980758 24.3125 60.6875 C25.07175781 60.58824219 25.83101562 60.48898438 26.61328125 60.38671875 C29.08628137 59.98601988 31.54339799 59.4913204 34 59 C34 64.94 34 70.88 34 77 C27.61508726 79.40313032 22.24355117 80.52207965 15.4375 80.5 C14.63892578 80.52835937 13.84035156 80.55671875 13.01757812 80.5859375 C6.90961031 80.60584938 2.67462476 78.96764289 -2 75 C-7.15344776 68.75481531 -7.12982069 61.28678612 -7.09765625 53.53515625 C-7.0962413 52.85698349 -7.09482635 52.17881073 -7.09336853 51.48008728 C-7.08782745 49.34084422 -7.07528653 47.20171075 -7.0625 45.0625 C-7.05747736 43.60091298 -7.0529158 42.13932431 -7.04882812 40.67773438 C-7.03787745 37.11845474 -7.02065445 33.55923809 -7 30 C-9.64 30 -12.28 30 -15 30 C-15.66399377 26.81282992 -15.82220458 24.16922491 -15 21 C-12.94921875 19.078125 -12.94921875 19.078125 -10.3125 17.25 C-3.7374454 12.66145126 -2.34977153 7.5192689 0 0 Z " fill="#3C3D3D" transform="translate(230,45)"/>
<path d="M0 0 C-0.59288188 7.34164374 -1.238212 14.67386859 -2 22 C-3.03640625 22.04898438 -4.0728125 22.09796875 -5.140625 22.1484375 C-6.51044208 22.22349597 -7.88023248 22.29904247 -9.25 22.375 C-9.93191406 22.4059375 -10.61382812 22.436875 -11.31640625 22.46875 C-16.48417862 22.74113543 -16.48417862 22.74113543 -21 25 C-23.69442695 28.83097635 -23.33205349 33.17198201 -23.37890625 37.66796875 C-23.39590073 38.50338699 -23.4128952 39.33880524 -23.43040466 40.19953918 C-23.48344926 42.8621165 -23.52381087 45.52467841 -23.5625 48.1875 C-23.60639006 50.86095622 -23.65301929 53.53429034 -23.70530701 56.20759583 C-23.73733395 57.87017131 -23.76420211 59.53285536 -23.78553772 61.19560242 C-23.88822878 66.88822878 -23.88822878 66.88822878 -25 68 C-26.62257544 68.0991657 -28.24939831 68.13079777 -29.875 68.1328125 C-30.85984375 68.13410156 -31.8446875 68.13539062 -32.859375 68.13671875 C-33.89578125 68.13285156 -34.9321875 68.12898438 -36 68.125 C-37.55460937 68.13080078 -37.55460937 68.13080078 -39.140625 68.13671875 C-40.12546875 68.13542969 -41.1103125 68.13414063 -42.125 68.1328125 C-43.03507812 68.13168457 -43.94515625 68.13055664 -44.8828125 68.12939453 C-47 68 -47 68 -48 67 C-48.09413687 64.94443339 -48.11742998 62.88559819 -48.11352539 60.82788086 C-48.11367142 60.18399918 -48.11381744 59.54011749 -48.1139679 58.87672424 C-48.11326885 56.73939697 -48.10547691 54.60215587 -48.09765625 52.46484375 C-48.09579204 50.98653715 -48.09436815 49.50822993 -48.09336853 48.02992249 C-48.08954359 44.13201198 -48.07971352 40.23413851 -48.06866455 36.33624268 C-48.05844992 32.36153667 -48.0538708 28.38682471 -48.04882812 24.41210938 C-48.03809122 16.60805404 -48.02049462 8.80403692 -48 1 C-41.73 1 -35.46 1 -29 1 C-28.34 4.63 -27.68 8.26 -27 12 C-26.34 12 -25.68 12 -25 12 C-24.87625 11.13375 -24.7525 10.2675 -24.625 9.375 C-19.88823132 -0.46290418 -9.71617759 -0.8223724 0 0 Z " fill="#414141" transform="translate(397,57)"/>
<path d="M0 0 C7.59 0 15.18 0 23 0 C23.02255359 8.58806111 23.04091657 17.17609936 23.05181217 25.76418209 C23.05704036 29.751572 23.06413684 33.73894067 23.07543945 37.72631836 C23.08627061 41.57125114 23.09227732 45.41616345 23.09487724 49.26111031 C23.09673108 50.73118983 23.10035091 52.20126818 23.10573006 53.67133904 C23.11294355 55.72354467 23.11399081 57.77566467 23.11352539 59.82788086 C23.115746 60.99814316 23.11796661 62.16840546 23.12025452 63.37413025 C23 66 23 66 22 67 C20.18985855 67.10139178 18.37547298 67.12961904 16.5625 67.125 C15.57378906 67.12757812 14.58507812 67.13015625 13.56640625 67.1328125 C9.03167631 66.96393975 4.51535265 66.45153526 0 66 C0 44.22 0 22.44 0 0 Z " fill="#3A3A3A" transform="translate(470,58)"/>
<path d="M0 0 C-2.61755789 5.408821 -5.44890902 10.50564044 -8.6875 15.5625 C-13.58631989 23.30038776 -18.31828559 31.12929172 -23 39 C-26.70661443 37.76446186 -26.78746371 37.0187457 -28.5 33.625 C-31.4082823 28.06418888 -34.47913114 22.61757046 -37.625 17.1875 C-38.09228516 16.37555176 -38.55957031 15.56360352 -39.04101562 14.72705078 C-41.04702137 11.26219661 -43.06403503 7.84873641 -45.3359375 4.55078125 C-47 2 -47 2 -47 0 C-40.94954802 -0.16773003 -34.89896413 -0.32827792 -28.84814453 -0.48217773 C-26.78982416 -0.5355416 -24.73155365 -0.5908665 -22.67333984 -0.64819336 C-19.7146276 -0.73026087 -16.75580762 -0.80527057 -13.796875 -0.87890625 C-12.87694763 -0.90594131 -11.95702026 -0.93297638 -11.00921631 -0.96083069 C-9.71833099 -0.99097511 -9.71833099 -0.99097511 -8.40136719 -1.02172852 C-7.64635925 -1.04171402 -6.89135132 -1.06169952 -6.11346436 -1.08229065 C-3.94552797 -0.99787906 -2.07931242 -0.60109206 0 0 Z " fill="#D91220" transform="translate(127,26)"/>
<path d="M0 0 C2.4272646 3.0098081 3.33659857 6.08988851 3.5625 9.9375 C2.10991907 14.21454384 0.41884865 16.62902832 -3.4375 18.9375 C-6.3125 19.30078125 -6.3125 19.30078125 -9.4375 19.25 C-10.46875 19.24613281 -11.5 19.24226563 -12.5625 19.23828125 C-15.42360564 18.93895362 -17.06144992 18.52330128 -19.4375 16.9375 C-22.40597842 12.48478237 -22.06371351 8.1585551 -21.4375 2.9375 C-19.48158121 -0.22206112 -18.26187413 -0.81327061 -14.75 -1.875 C-9.63874154 -2.16431652 -4.74422106 -2.0679938 0 0 Z " fill="#444444" transform="translate(491.4375,33.0625)"/>
<path d="M0 0 C6.15234375 -0.09765625 6.15234375 -0.09765625 8 0 C9.82556117 1.82556117 9.12772403 4.70538603 9.12939453 7.15625 C9.13254669 8.47431641 9.13569885 9.79238281 9.13894653 11.15039062 C9.13715675 12.60026075 9.1351058 14.05013058 9.1328125 15.5 C9.13348557 16.97591162 9.13445563 18.45182313 9.13571167 19.92773438 C9.13718848 23.02475029 9.13503464 26.12173742 9.13037109 29.21875 C9.1246738 33.19708549 9.1279529 37.17535352 9.13394356 41.15368652 C9.13754963 44.20247917 9.13641037 47.25125571 9.13381577 50.30004883 C9.13314662 51.76733406 9.13397447 53.23462074 9.13629532 54.7019043 C9.13882257 56.74918593 9.1342906 58.79647266 9.12939453 60.84375 C9.12859894 62.01099609 9.12780334 63.17824219 9.12698364 64.38085938 C9 67 9 67 8 68 C5.13732433 68.07325168 2.299281 68.09238205 -0.5625 68.0625 C-1.36880859 68.05798828 -2.17511719 68.05347656 -3.00585938 68.04882812 C-5.00393756 68.03700518 -7.00197783 68.01906914 -9 68 C-9 67.01 -9 66.02 -9 65 C-3.72 65.33 1.56 65.66 7 66 C7 44.55 7 23.1 7 1 C4.69 1 2.38 1 0 1 C0 0.67 0 0.34 0 0 Z " fill="#A7A7A7" transform="translate(199,57)"/>
<path d="M0 0 C0.99 0.99 1.98 1.98 3 3 C2.67 3.66 2.34 4.32 2 5 C-6.25 5 -14.5 5 -23 5 C-23.33 4.34 -23.66 3.68 -24 3 C-16.08 2.67 -8.16 2.34 0 2 C0 1.34 0 0.68 0 0 Z " fill="#BDBDBD" transform="translate(644,120)"/>
</svg>
